<svg xmlns:xlink="http://www.w3.org/1999/xlink" xmlns="http://www.w3.org/2000/svg" version="1.1" viewBox="0 0 1024 1024" height="1024px" width="1024px">
    <title>通用</title>
    <defs>
        <rect rx="20.48" height="1024" width="1024" y="0" x="0" id="path-1"></rect>
    </defs>
    <g fill-rule="evenodd" fill="none" stroke-width="1" stroke="none" id="通用">
        <g>
            <mask fill="white" id="mask-2">
                <use xlink:href="#path-1"></use>
            </mask>
            <g id="蒙版"></g>
            <g fill-rule="nonzero" mask="url(#mask-2)" id="编组">
                <g transform="translate(97.28, 76.8)">
                    <path fill="#9CC5FF" id="形状" d="M476.59561,312.32 L476.59561,168.96 L261.820764,168.96 C233.695487,168.96 210.683896,192 210.683896,220.16 L210.683896,680.96 C210.683896,709.12 233.695487,732.16 261.820764,732.16 L568.641973,732.16 C596.76725,732.16 619.778841,709.12 619.778841,680.96 L619.778841,312.32 L476.59561,312.32 L476.59561,312.32 Z M520.061948,413.696 L406.026732,552.96 L384.549248,532.48 L363.071763,553.472 L363.071763,511.488 L496.02762,425.984 L348.75344,497.664 L310.400789,461.824 L310.400789,457.216 L520.061948,409.088 L520.061948,413.696 L520.061948,413.696 Z"></path>
                    <path opacity="0.1" fill="#2F6AF8" id="路径" d="M6.13642417,819.2 C6.13642417,847.476979 189.29447,870.4 415.231369,870.4 C641.168268,870.4 824.326313,847.476979 824.326313,819.2 C824.326313,790.923021 641.168268,768 415.231369,768 C189.29447,768 6.13642417,790.923021 6.13642417,819.2 Z"></path>
                    <path fill="#9CC5FF" id="形状结合" d="M15.3410604,433.152 C24.034328,433.152 30.6821208,439.808 30.6821208,448.512 C30.6821208,457.216 24.034328,463.872 15.3410604,463.872 C6.64779285,463.872 0,457.216 0,448.512 C0,440.32 7.15916153,433.152 15.3410604,433.152 Z M57.2732922,344.576 C65.3733721,375.49568 71.9698747,382.328422 102.368006,390.410675 L103.294,390.656 L102.368006,390.901325 C71.9698747,398.983578 65.3733721,405.81632 57.2732922,436.736 C49.0913933,405.504 42.4436005,398.848 11.250111,390.656 C42.4436005,382.464 49.0913933,375.808 57.2732922,344.576 Z M51.1368681,745.472 C51.1368681,754.176 57.7846609,760.832 66.4779285,760.832 C75.1711961,760.832 81.8189889,754.176 81.8189889,745.472 C81.8189889,736.768 75.1711961,730.112 66.4779285,730.112 C58.2960296,730.112 51.1368681,737.28 51.1368681,745.472 L51.1368681,745.472 Z M829.44,771.072 C814.09894,775.168 810.519359,778.24 806.428409,794.112 C802.33746,778.752 799.269248,775.168 783.416819,771.072 C798.757879,766.976 802.33746,763.392 806.428409,748.032 C810.519359,763.392 813.587571,766.976 829.44,771.072 Z M702.109199,115.2 C705.688779,130.56 709.26836,133.632 724.60942,137.728 C709.26836,141.824 706.200148,144.896 702.109199,160.256 C698.018249,144.896 694.950037,141.824 679.608977,137.728 C694.950037,133.632 698.018249,130.56 702.109199,115.2 Z M726.654895,0 C736.882269,39.424 745.575536,48.128 785.462293,58.88 C745.575536,69.12 737.393637,77.824 726.654895,117.76 C716.427522,77.824 707.734254,69.632 667.847497,58.88 C707.734254,48.64 715.916153,39.936 726.654895,0 Z"></path>
                    <path fill="#64ADFF" id="形状结合" d="M528.243847,102.4 C528.755216,102.4 529.777953,102.912 530.800691,102.912 L531.438679,102.912233 C531.977746,102.91503 532.885501,102.951385 533.357534,103.424 C533.868903,103.936 533.868903,103.936 534.380271,103.936 C534.572035,104.128 534.763798,104.248 534.955561,104.35 L535.339088,104.546 C535.530851,104.648 535.722614,104.768 535.914377,104.96 L536.425746,105.472 C537.448483,105.984 537.959852,106.496 538.471221,107.008 L681.654451,250.368 C681.846215,250.56 682.037978,250.824 682.229741,251.106 L682.613268,251.678 C682.805031,251.96 682.996794,252.224 683.188557,252.416 L683.699926,252.928 C683.891689,253.12 684.011541,253.312 684.113416,253.504 L684.309174,253.888 C684.411048,254.08 684.5309,254.272 684.722663,254.464 C685.234032,254.976 685.234032,254.976 685.234032,255.488 C685.234032,256 685.745401,257.024 685.745401,257.536 L685.745401,258.048 C686.222678,258.525867 686.254497,259.449742 686.256618,260.403352 L686.256769,680.96 C686.256769,745.984 633.585795,798.72 568.641973,798.72 L261.820764,798.72 C196.876942,798.72 144.205968,745.984 144.205968,680.96 L144.205968,220.16 C144.205968,155.136 196.876942,102.4 261.820764,102.4 L528.243847,102.4 Z M512.391418,133.12 L261.820764,133.12 C213.752109,133.12 174.888089,172.032 174.888089,220.16 L174.888089,680.96 C174.888089,729.088 213.752109,768 261.820764,768 L568.641973,768 C616.710629,768 655.574649,729.088 655.574649,680.96 L655.574649,276.48 L527.732478,276.48 C519.039211,276.48 512.391418,269.824 512.391418,261.12 L512.391418,133.12 Z M543.073539,154.624 L543.073539,245.76 L634.097164,245.76 L543.073539,154.624 Z"></path>
                </g>
            </g>
        </g>
    </g>
</svg>