<svg xml:space="preserve" style="enable-background:new 0 0 1024 1024;" viewBox="0 0 1024 1024" y="0px" x="0px" xmlns:xlink="http://www.w3.org/1999/xlink" xmlns="http://www.w3.org/2000/svg" id="图层_1" version="1.1">
<style type="text/css">
	.st0{fill:url(#SVGID_1_);}
	.st1{fill:#7C72ED;}
	.st2{fill:url(#SVGID_2_);}
	.st3{fill:#B1A9F7;}
	.st4{fill:#8B80FB;}
	.st5{fill:#C2BDFC;}
	.st6{fill:url(#SVGID_3_);}
	.st7{fill:url(#SVGID_4_);}
	.st8{fill:url(#SVGID_5_);}
	.st9{fill:url(#SVGID_6_);}
	.st10{fill:url(#SVGID_7_);}
	.st11{opacity:0.5;fill:url(#SVGID_8_);}
	.st12{fill:#FFFFFF;}
	.st13{fill:url(#SVGID_9_);}
	.st14{fill:url(#SVGID_10_);}
	.st15{fill:url(#SVGID_11_);}
	.st16{fill:url(#SVGID_12_);}
</style>
<g>
	<g>
		<linearGradient y2="674.4791" x2="926.902" y1="674.4791" x1="107.9514" gradientUnits="userSpaceOnUse" id="SVGID_1_">
			<stop style="stop-color:#8574FD" offset="5.154639e-03"></stop>
			<stop style="stop-color:#715EF5" offset="1"></stop>
		</linearGradient>
		<path d="M108,402.3V754c0,106.4,183.3,192.7,409.5,192.7S926.9,860.4,926.9,754V402.3H108z" class="st0"></path>
		<path d="M517.4,815.3C291.3,815.3,108,729,108,622.6v36.1c0,106.4,183.3,192.7,409.5,192.7s409.5-86.3,409.5-192.7
			v-36.1C926.9,729,743.6,815.3,517.4,815.3z" class="st1"></path>
		<path d="M517.4,670.7C291.3,670.7,108,584.5,108,478v36.1c0,106.4,183.3,192.7,409.5,192.7s409.5-86.3,409.5-192.7
			V478C926.9,584.5,743.6,670.7,517.4,670.7z" class="st1"></path>
		<linearGradient y2="402.2965" x2="926.902" y1="402.2965" x1="107.9514" gradientUnits="userSpaceOnUse" id="SVGID_2_">
			<stop style="stop-color:#C5BAFE" offset="5.154639e-03"></stop>
			<stop style="stop-color:#E9E6FC" offset="1"></stop>
		</linearGradient>
		<ellipse ry="192.7" rx="409.5" cy="402.3" cx="517.4" class="st2"></ellipse>
		<g>
			<path d="M794.4,852.8h-12v-58.1l3.6-1.6c0.3-0.1,30-13.2,53.5-27.3c18-10.8,29.1-20.3,33.2-24V587.4l12-12v171.5
				l-1.8,1.8c-0.5,0.5-12.8,12.7-37.3,27.5c-19.5,11.7-42.5,22.4-51.3,26.4V852.8z" class="st3"></path>
		</g>
		<path d="M734.2,865.7v30.2c41.8-12.3,78.5-28,108.4-46.4v-29.8C811.7,837.5,775.2,853,734.2,865.7z" class="st4"></path>
		<path d="M312.7,862.3v30.2c-41.8-12.3-78.5-28-108.4-46.4v-29.8C235.2,834.1,271.7,849.7,312.7,862.3z" class="st5"></path>
		<path d="M206.7,680.4c-41.8-21.6-80.1-72.9-98.8-93.9v13.5c17,20.7,50.6,69.1,93.2,91.1l57.3,29.5v122.1
			c3.9,1.6,8,3.2,12,4.7V713.3L206.7,680.4z" class="st3"></path>
		<g>
			<linearGradient y2="655.9576" x2="926.9048" y1="655.9576" x1="687.9326" gradientUnits="userSpaceOnUse" id="SVGID_3_">
				<stop style="stop-color:#7263F3" offset="5.154639e-03"></stop>
				<stop style="stop-color:#5042D3" offset="1"></stop>
			</linearGradient>
			<path d="M687.9,689.4v108.4c141-30.4,239-97.4,239-175.2V514.2C926.9,591.9,828.9,658.9,687.9,689.4z" class="st6"></path>
			<linearGradient y2="664.7122" x2="520.6304" y1="664.7122" x1="107.9514" gradientUnits="userSpaceOnUse" id="SVGID_4_">
				<stop style="stop-color:#7263F3" offset="5.154639e-03"></stop>
				<stop style="stop-color:#5042D3" offset="1"></stop>
			</linearGradient>
			<path d="M520.6,706.8c-1.1,0-2.1,0-3.2,0c-226.2,0-409.5-86.3-409.5-192.7v108.4c0,106.4,183.3,192.7,409.5,192.7
				c1.1,0,2.1,0,3.2,0V706.8z" class="st7"></path>
		</g>
	</g>
	<g>
		<linearGradient y2="381.576" x2="750.0543" y1="381.576" x1="228.7538" gradientUnits="userSpaceOnUse" id="SVGID_5_">
			<stop style="stop-color:#8071FE" offset="0"></stop>
			<stop style="stop-color:#6052E9" offset="0.9948"></stop>
		</linearGradient>
		<path d="M750.1,444.5l-7.4,7.4c0,16.9-4.3,30-26,48c-6.8,5.6-15.3,11.9-26,18.8c-44.4,28.9-148.4,7.4-148.4,7.4
			S245.6,362.9,238.2,355.5c-3-3-5.1-8.1-6.5-13.1c-1.5-4.1-2.6-8.8-2.8-13.9c0-0.3-0.1-0.5-0.1-0.5v-98.7l487.9,24.4l31.3,1.6
			L750.1,444.5z" class="st8"></path>
		<linearGradient y2="352.6748" x2="750.0543" y1="352.6748" x1="716.6719" gradientUnits="userSpaceOnUse" id="SVGID_6_">
			<stop style="stop-color:#8071FE" offset="0"></stop>
			<stop style="stop-color:#6052E9" offset="0.9948"></stop>
		</linearGradient>
		<polygon points="743,347.7 743,451.6 750.1,444.5 748,255.3 716.7,253.8 716.7,347.7" class="st9"></polygon>
		<linearGradient y2="307.2086" x2="747.9726" y1="307.2086" x1="229.0634" gradientUnits="userSpaceOnUse" id="SVGID_7_">
			<stop style="stop-color:#C1B7FE" offset="5.154639e-03"></stop>
			<stop style="stop-color:#7D6FF8" offset="1"></stop>
		</linearGradient>
		<path d="M243.3,261.9l296,166.1c2,1.1,4.2,1.9,6.5,2.4c18.5,3.4,105.3,17.7,144.9-8.1c44.4-28.9,51.9-44.5,51.9-66.8
			c0-30.8-22.3-37.1-22.3-37.1s66.8-66.8-7.4-111.3c-74.4-44.6-192.5-13.7-192.5-13.7s-32.1-18.3-75.2-12.8
			c-47.9,6.1-62.5,15.3-62.5,15.3s-56.3-37-118.7-7.4c-44.6,21.2-36.5,50.3-29.8,63.9C236.3,256.4,239.4,259.7,243.3,261.9z" class="st10"></path>
		<linearGradient y2="307.1638" x2="731.1729" y1="307.1638" x1="251.6604" gradientUnits="userSpaceOnUse" id="SVGID_8_">
			<stop style="stop-color:#C1B7FE" offset="5.154639e-03"></stop>
			<stop style="stop-color:#7D6FF8" offset="1"></stop>
		</linearGradient>
		<path d="M265.1,263.9l273.4,153.4c1.9,1.1,3.9,1.8,6,2.2c17.1,3.2,97.2,16.3,133.8-7.5c41-26.7,48-41.1,48-61.7
			c0-28.4-20.6-34.3-20.6-34.3s61.7-61.7-6.9-102.8c-68.7-41.2-178.1-11.2-178.1-11.2s-31.5-18.1-75.5-10.8s-53.9,16.2-53.9,16.2
			s-52.1-34-107-11.3c-42.1,17.4-33.7,46.5-27.5,59C258.6,258.9,261.5,261.9,265.1,263.9z" class="st11"></path>
		<path d="M494,321.9c14.6,3.9,30.6,5.1,46,3.6c2-0.2,4-0.4,6-0.7c0.8-0.1,1.6-0.3,2.4-0.4c1.5-0.3,3.1-0.5,4.6-0.8
			c0.9-0.2,1.8-0.4,2.7-0.6c1.4-0.3,2.9-0.7,4.3-1c0.7-0.2,1.3-0.4,2-0.6c1.6-0.5,3.2-0.9,4.7-1.5c0.4-0.1,0.7-0.2,1-0.4
			c1.8-0.6,3.5-1.3,5.1-2c0.1,0,0.1-0.1,0.2-0.1c5.6-2.5,10.5-5.3,14.5-8.6c0.1-0.1,0.1-0.1,0.2-0.2c1.2-1,2.4-2,3.5-3.1
			c0.2-0.2,0.4-0.5,0.7-0.7c7.8-8,10.9-17.5,7.6-27.2l-17.2,1.5c-0.4,0-0.9-0.1-1.2-0.3c-0.3-0.2-0.4-0.5-0.2-0.7l20.8-26.8
			c0.2-0.2,0.5-0.4,0.9-0.4c0.4,0,0.9,0.1,1.2,0.2l37.1,21.7c0.3,0.2,0.4,0.4,0.3,0.7c-0.2,0.3-0.5,0.4-1,0.5l-17.2,1.5
			c3.9,11.5,1,22.7-6.9,32.4c-0.1,0.1-0.1,0.3-0.3,0.4c-0.8,1-1.8,1.9-2.7,2.9c-0.3,0.4-0.7,0.7-1,1.1c-1.4,1.4-2.9,2.7-4.5,3.9
			c-0.1,0.1-0.3,0.3-0.4,0.4c-5.3,4.2-11.6,8-18.9,11.1c-0.2,0.1-0.4,0.2-0.6,0.3c-2.1,0.9-4.2,1.7-6.4,2.5
			c-0.5,0.2-1.1,0.4-1.6,0.6c-1.9,0.7-3.9,1.3-5.9,1.8c-1,0.3-1.9,0.6-2.8,0.8c-1.8,0.5-3.6,0.9-5.4,1.3c-1.2,0.3-2.4,0.6-3.7,0.8
			c-0.5,0.1-1,0.2-1.5,0.3c-1.8,0.3-3.5,0.6-5.3,0.9c-0.6,0.1-1.3,0.2-1.9,0.3c-3.2,0.5-6.4,0.9-9.6,1.2c-19.9,1.8-40.4,0.1-59.2-5
			c-6-1.6-8.7-5.6-6-8.9C481,321.7,488.1,320.3,494,321.9L494,321.9z M427.5,292.8l-17.2,1.5c-0.4,0-0.8,0.2-1,0.5
			c-0.1,0.2,0,0.5,0.3,0.7l37.1,21.7c0.3,0.2,0.7,0.3,1.2,0.2c0.4,0,0.8-0.2,0.9-0.4l20.8-26.8c0.2-0.2,0.1-0.5-0.2-0.7
			c-0.3-0.2-0.8-0.3-1.2-0.3l-17.2,1.5c-3.4-10-0.1-19.7,8-27.7c0,0,0.1-0.1,0.1-0.1c5.8-5.7,14-10.6,24-14.2l0.5-0.2
			c1.7-0.6,3.4-1.1,5.2-1.6c0.5-0.1,1-0.3,1.5-0.4c1.6-0.4,3.2-0.8,4.8-1.2c0.7-0.2,1.4-0.3,2.2-0.5c1.7-0.3,3.3-0.6,5.1-0.9
			c0.6-0.1,1.3-0.2,1.9-0.3c2.1-0.3,4.3-0.6,6.5-0.8c15.3-1.4,31.1-0.2,45.6,3.7c6,1.6,13.1,0.2,15.8-3c2.7-3.3,0.1-7.3-6-8.9
			c-18.8-5-39.2-6.7-59.1-4.9c-0.1,0-0.2,0-0.3,0c-0.5,0-0.9,0.1-1.4,0.2c-2.6,0.3-5.1,0.5-7.7,0.9c-1.1,0.2-2.1,0.3-3.1,0.5
			c-1.5,0.3-3,0.5-4.5,0.7c-0.5,0.1-1.1,0.3-1.6,0.4c-1.1,0.2-2.2,0.5-3.3,0.7c-2,0.5-3.9,0.9-5.8,1.4c-0.8,0.2-1.6,0.5-2.4,0.7
			c-2.2,0.6-4.3,1.3-6.4,2c-0.4,0.1-0.7,0.3-1.1,0.4c-13,4.6-23.7,10.9-31.3,18.5c-0.1,0.1-0.3,0.3-0.4,0.4
			c-1.1,1.1-2.3,2.3-3.2,3.5c-0.1,0.2-0.2,0.3-0.3,0.5C426.4,270.2,423.6,281.4,427.5,292.8" class="st12"></path>
	</g>
	<linearGradient y2="294.1828" x2="197.1793" y1="294.1828" x1="141.4119" gradientUnits="userSpaceOnUse" id="SVGID_9_">
		<stop style="stop-color:#C5BAFE" offset="5.154639e-03"></stop>
		<stop style="stop-color:#E9E6FC" offset="1"></stop>
	</linearGradient>
	<circle r="27.9" cy="294.2" cx="169.3" class="st13"></circle>
	<linearGradient y2="344.3735" x2="866.3884" y1="344.3735" x1="821.7745" gradientUnits="userSpaceOnUse" id="SVGID_10_">
		<stop style="stop-color:#C5BAFE" offset="5.154639e-03"></stop>
		<stop style="stop-color:#E9E6FC" offset="1"></stop>
	</linearGradient>
	<circle r="22.3" cy="344.4" cx="844.1" class="st14"></circle>
	<linearGradient y2="121.3038" x2="409.0955" y1="121.3038" x1="364.4816" gradientUnits="userSpaceOnUse" id="SVGID_11_">
		<stop style="stop-color:#C5BAFE" offset="5.154639e-03"></stop>
		<stop style="stop-color:#E9E6FC" offset="1"></stop>
	</linearGradient>
	<circle r="22.3" cy="121.3" cx="386.8" class="st15"></circle>
	<linearGradient y2="758.506" x2="676.7791" y1="758.506" x1="517.4267" gradientUnits="userSpaceOnUse" id="SVGID_12_">
		<stop style="stop-color:#5042D3" offset="0"></stop>
		<stop style="stop-color:#6353E2" offset="0.9948"></stop>
	</linearGradient>
	<polygon points="517.4,670.7 676.8,745.9 520.6,846.3" class="st16"></polygon>
</g>
</svg>
