<?xml version="1.0" standalone="no"?><!DOCTYPE svg PUBLIC "-//W3C//DTD SVG 1.1//EN" "http://www.w3.org/Graphics/SVG/1.1/DTD/svg11.dtd"><svg height="1024" node-id="1" sillyvg="true" template-height="1024" template-width="1024" version="1.1" viewBox="0 0 1024 1024" width="1024" xmlns="http://www.w3.org/2000/svg" xmlns:xlink="http://www.w3.org/1999/xlink"><defs node-id="96"></defs><path d="M 125.30 410.60 L 129.50 401.20 L 133.80 392.30 L 138.40 384.10 L 143.20 376.30 L 148.10 369.10 L 154.80 360.20 L 161.80 352.00 L 169.10 344.40 L 176.60 337.30 L 184.50 330.60 L 192.60 324.30 L 201.10 318.50 L 209.80 313.00 L 221.70 306.20 L 234.00 299.80 L 246.70 293.80 L 259.60 288.30 L 286.50 277.70 L 349.60 254.10 L 371.20 245.30 L 385.40 239.00 L 399.70 232.10 L 423.00 220.00 L 432.50 215.70 L 442.40 211.80 L 452.80 208.20 L 463.20 205.00 L 485.20 199.50 L 496.80 197.30 L 512.20 194.80 L 528.10 192.70 L 544.40 191.20 L 560.70 190.10 L 577.20 189.50 L 593.80 189.30 L 627.00 190.00 L 643.40 190.90 L 675.70 193.70 L 691.30 195.50 L 721.60 199.80 L 735.70 202.20 L 762.90 207.70 L 787.10 213.70 L 807.30 219.90 L 817.20 223.50 L 825.70 227.10 L 833.10 230.60 L 839.30 234.20 L 845.50 238.30 L 850.80 242.40 L 855.10 246.50 L 858.70 250.60 L 862.00 255.10 L 864.60 259.70 L 866.60 264.30 L 868.10 269.00 L 869.10 273.90 L 869.80 278.90 L 870.00 284.00 L 869.80 289.30 L 869.10 296.30 L 868.00 303.60 L 866.30 311.20 L 853.40 359.50 L 849.90 376.70 L 848.70 385.50 L 848.10 394.40 L 848.00 403.40 L 848.60 412.60 L 849.50 419.40 L 850.90 426.40 L 852.90 433.40 L 855.40 440.60 L 858.30 447.50 L 861.90 454.60 L 866.30 461.80 L 879.20 480.20 L 886.30 491.10 L 892.80 502.00 L 898.60 512.90 L 903.80 523.80 L 908.60 535.10 L 912.80 546.30 L 916.40 557.50 L 919.50 568.60 L 921.90 579.60 L 923.80 590.90 L 925.20 602.00 L 926.00 613.00 L 926.20 623.90 L 925.90 634.70 L 925.00 645.60 L 923.60 656.20 L 921.60 666.70 L 919.10 677.00 L 916.00 687.20 L 912.40 697.10 L 908.30 706.90 L 903.60 716.40 L 898.40 725.80 L 892.60 734.90 L 886.30 743.70 L 879.50 752.10 L 872.20 760.30 L 864.30 768.30 L 855.70 776.00 L 848.30 782.00 L 841.00 787.30 L 833.80 791.90 L 826.80 795.80 L 819.50 799.40 L 812.20 802.50 L 805.00 805.00 L 797.70 807.10 L 790.40 808.80 L 775.50 811.10 L 768.00 811.70 L 757.90 812.10 L 747.60 812.00 L 737.10 811.60 L 721.20 810.30 L 669.80 804.70 L 651.70 803.10 L 632.50 801.90 L 619.60 801.40 L 606.10 801.40 L 592.10 801.90 L 578.10 802.80 L 563.40 804.40 L 548.00 806.70 L 505.60 814.60 L 452.70 825.40 L 422.60 830.90 L 399.10 833.70 L 380.60 834.70 L 361.90 834.20 L 352.20 833.30 L 342.60 832.00 L 332.40 830.30 L 321.70 828.00 L 311.00 825.30 L 299.60 822.00 L 275.10 813.70 L 247.40 802.70 L 237.80 798.40 L 228.50 793.60 L 219.50 788.40 L 210.80 782.70 L 202.30 776.70 L 194.20 770.20 L 186.30 763.40 L 178.80 756.20 L 171.50 748.70 L 164.60 740.70 L 158.00 732.50 L 151.70 724.00 L 145.70 715.20 L 140.10 706.10 L 134.70 696.60 L 128.60 684.60 L 122.90 672.20 L 117.80 659.30 L 113.30 646.10 L 109.30 632.80 L 105.90 619.10 L 103.10 605.20 L 100.90 591.00 L 99.20 576.70 L 98.20 562.30 L 97.80 547.70 L 98.00 533.00 L 98.60 521.20 L 99.70 509.40 L 101.10 497.60 L 103.00 485.80 L 105.30 473.80 L 108.00 462.10 L 111.10 450.40 L 114.70 438.70 L 118.80 427.00 L 125.30 410.60 Z" fill="#8c71ff" fill-rule="nonzero" node-id="98" stroke="none" target-height="645.4" target-width="828.4" target-x="97.8" target-y="189.3"></path><g node-id="317"><path d="M 125.30 410.60 L 129.50 401.20 L 133.80 392.30 L 138.40 384.10 L 143.20 376.30 L 148.10 369.10 L 154.80 360.20 L 161.80 352.00 L 169.10 344.40 L 176.60 337.30 L 184.50 330.60 L 192.60 324.30 L 201.10 318.50 L 209.80 313.00 L 221.70 306.20 L 234.00 299.80 L 246.70 293.80 L 259.60 288.30 L 286.50 277.70 L 349.60 254.10 L 371.20 245.30 L 385.40 239.00 L 399.70 232.10 L 423.00 220.00 L 432.50 215.70 L 442.40 211.80 L 452.80 208.20 L 463.20 205.00 L 485.20 199.50 L 496.80 197.30 L 512.20 194.80 L 528.10 192.70 L 544.40 191.20 L 560.70 190.10 L 577.20 189.50 L 593.80 189.30 L 627.00 190.00 L 643.40 190.90 L 675.70 193.70 L 691.30 195.50 L 721.60 199.80 L 735.70 202.20 L 762.90 207.70 L 787.10 213.70 L 807.30 219.90 L 817.20 223.50 L 825.70 227.10 L 833.10 230.60 L 839.30 234.20 L 845.50 238.30 L 850.80 242.40 L 855.10 246.50 L 858.70 250.60 L 862.00 255.10 L 864.60 259.70 L 866.60 264.30 L 868.10 269.00 L 869.10 273.90 L 869.80 278.90 L 870.00 284.00 L 869.80 289.30 L 869.10 296.30 L 868.00 303.60 L 866.30 311.20 L 853.40 359.50 L 849.90 376.70 L 848.70 385.50 L 848.10 394.40 L 848.00 403.40 L 848.60 412.60 L 849.50 419.40 L 850.90 426.40 L 852.90 433.40 L 855.40 440.60 L 858.30 447.50 L 861.90 454.60 L 866.30 461.80 L 879.20 480.20 L 886.30 491.10 L 892.80 502.00 L 898.60 512.90 L 903.80 523.80 L 908.60 535.10 L 912.80 546.30 L 916.40 557.50 L 919.50 568.60 L 921.90 579.60 L 923.80 590.90 L 925.20 602.00 L 926.00 613.00 L 926.20 623.90 L 925.90 634.70 L 925.00 645.60 L 923.60 656.20 L 921.60 666.70 L 919.10 677.00 L 916.00 687.20 L 912.40 697.10 L 908.30 706.90 L 903.60 716.40 L 898.40 725.80 L 892.60 734.90 L 886.30 743.70 L 879.50 752.10 L 872.20 760.30 L 864.30 768.30 L 855.70 776.00 L 848.30 782.00 L 841.00 787.30 L 833.80 791.90 L 826.80 795.80 L 819.50 799.40 L 812.20 802.50 L 805.00 805.00 L 797.70 807.10 L 790.40 808.80 L 775.50 811.10 L 768.00 811.70 L 757.90 812.10 L 747.60 812.00 L 737.10 811.60 L 721.20 810.30 L 669.80 804.70 L 651.70 803.10 L 632.50 801.90 L 619.60 801.40 L 606.10 801.40 L 592.10 801.90 L 578.10 802.80 L 563.40 804.40 L 548.00 806.70 L 505.60 814.60 L 452.70 825.40 L 422.60 830.90 L 399.10 833.70 L 380.60 834.70 L 361.90 834.20 L 352.20 833.30 L 342.60 832.00 L 332.40 830.30 L 321.70 828.00 L 311.00 825.30 L 299.60 822.00 L 275.10 813.70 L 247.40 802.70 L 237.80 798.40 L 228.50 793.60 L 219.50 788.40 L 210.80 782.70 L 202.30 776.70 L 194.20 770.20 L 186.30 763.40 L 178.80 756.20 L 171.50 748.70 L 164.60 740.70 L 158.00 732.50 L 151.70 724.00 L 145.70 715.20 L 140.10 706.10 L 134.70 696.60 L 128.60 684.60 L 122.90 672.20 L 117.80 659.30 L 113.30 646.10 L 109.30 632.80 L 105.90 619.10 L 103.10 605.20 L 100.90 591.00 L 99.20 576.70 L 98.20 562.30 L 97.80 547.70 L 98.00 533.00 L 98.60 521.20 L 99.70 509.40 L 101.10 497.60 L 103.00 485.80 L 105.30 473.80 L 108.00 462.10 L 111.10 450.40 L 114.70 438.70 L 118.80 427.00 L 125.30 410.60 Z" fill="#ffffff" fill-opacity="0.86" fill-rule="nonzero" group-id="1" node-id="102" stroke="none" target-height="645.4" target-width="828.4" target-x="97.8" target-y="189.3"></path></g><path d="M 292.20 275.80 L 103.20 603.10 L 106.20 618.30 L 109.90 633.30 L 322.90 264.50 L 292.20 275.80 Z" fill="#ffffff" fill-rule="nonzero" node-id="105" stroke="none" target-height="368.8" target-width="219.7" target-x="103.2" target-y="264.5"></path><path d="M 661.30 192.30 L 298.10 821.40 L 318.90 827.20 L 684.20 194.60 L 661.30 192.30 Z" fill="#ffffff" fill-rule="nonzero" node-id="107" stroke="none" target-height="634.9" target-width="386.1" target-x="298.1" target-y="192.3"></path><path d="M 872.00 469.40 L 865.00 459.00 L 665.60 804.30 L 688.40 806.70 L 878.10 478.00 L 872.00 469.40 Z" fill="#ffffff" fill-rule="nonzero" node-id="109" stroke="none" target-height="347.7" target-width="212.5" target-x="665.6" target-y="459"></path><path d="M 165.40 760.50 L 892.20 760.50" fill="none" node-id="111" stroke="#0c0426" stroke-linecap="butt" stroke-width="1" target-height="0" target-width="726.80005" target-x="165.4" target-y="760.5"></path><path d="M 907.70 760.50 L 985.80 760.50" fill="none" node-id="113" stroke="#0c0426" stroke-linecap="butt" stroke-width="1" target-height="0" target-width="78.099976" target-x="907.7" target-y="760.5"></path><path d="M 40.90 760.50 L 152.30 760.50" fill="none" node-id="115" stroke="#0c0426" stroke-linecap="butt" stroke-width="1" target-height="0" target-width="111.4" target-x="40.9" target-y="760.5"></path><path d="M 492.00 578.10 L 536.90 578.10 L 536.90 759.00 L 492.00 759.00 Z" fill="#0c0426" fill-rule="nonzero" node-id="117" stroke="none" target-height="180.90002" target-width="44.900024" target-x="492" target-y="578.1"></path><path d="M 220.00 283.00 L 809.00 283.00 L 809.00 654.00 L 220.00 654.00 Z" fill="#8c71ff" fill-rule="nonzero" node-id="119" stroke="#0c0426" stroke-linecap="butt" stroke-width="1" target-height="371" target-width="589" target-x="220" target-y="283"></path><path d="M 241.20 302.70 L 787.70 302.70 L 787.70 634.30 L 241.20 634.30 Z" fill="#ffffff" fill-rule="nonzero" node-id="121" stroke="#0c0426" stroke-linecap="round" stroke-width="1" target-height="331.59998" target-width="546.5" target-x="241.2" target-y="302.7"></path><path d="M 241.20 614.60 L 787.70 614.60 L 787.70 634.50 L 241.20 634.50 Z" fill="#0c0426" fill-rule="nonzero" node-id="123" stroke="none" target-height="19.900024" target-width="546.5" target-x="241.2" target-y="614.6"></path><path d="M 516.90 738.70 L 350.70 749.50 L 350.70 760.30 L 678.20 760.30 L 678.20 749.50 L 516.90 738.70 Z" fill="#0c0426" fill-rule="nonzero" node-id="125" stroke="none" target-height="21.599976" target-width="327.5" target-x="350.7" target-y="738.7"></path><path d="M 293.00 525.10 L 308.10 525.10 L 308.10 614.30 L 293.00 614.30 Z" fill="#8c71ff" fill-rule="nonzero" node-id="127" stroke="#0c0426" stroke-linecap="round" stroke-width="1" target-height="89.20001" target-width="15.100006" target-x="293" target-y="525.1"></path><path d="M 289.90 525.10 L 299.00 525.10 L 299.00 614.30 L 289.90 614.30 Z" fill="#8c71ff" fill-rule="nonzero" node-id="129" stroke="#0c0426" stroke-linecap="round" stroke-width="1" target-height="89.20001" target-width="9.100006" target-x="289.9" target-y="525.1"></path><path d="M 292.90 540.50 L 295.00 540.50 L 295.00 597.20 L 292.90 597.20 Z" fill="#ffffff" fill-rule="nonzero" node-id="131" stroke="none" target-height="56.700012" target-width="2.100006" target-x="292.9" target-y="540.5"></path><path d="M 302.50 540.50 L 304.60 540.50 L 304.60 597.20 L 302.50 597.20 Z" fill="#ffffff" fill-rule="nonzero" node-id="133" stroke="none" target-height="56.700012" target-width="2.100006" target-x="302.5" target-y="540.5"></path><path d="M 431.30 517.90 L 446.40 517.90 L 446.40 614.30 L 431.30 614.30 Z" fill="#8c71ff" fill-rule="nonzero" node-id="135" stroke="#0c0426" stroke-linecap="round" stroke-width="1" target-height="96.39996" target-width="15.100006" target-x="431.3" target-y="517.9"></path><path d="M 436.70 534.50 L 440.90 534.50 L 440.90 595.70 L 436.70 595.70 Z" fill="#ffffff" fill-rule="nonzero" node-id="137" stroke="none" target-height="61.200012" target-width="4.1999817" target-x="436.7" target-y="534.5"></path><path d="M 307.20 495.10 L 341.40 495.10 L 341.40 614.30 L 307.20 614.30 Z" fill="#c9c9c9" fill-rule="nonzero" node-id="139" stroke="#0c0426" stroke-linecap="round" stroke-width="1" target-height="119.19998" target-width="34.19998" target-x="307.2" target-y="495.1"></path><path d="M 307.20 505.50 L 341.40 505.50 L 341.40 512.70 L 307.20 512.70 Z" fill="#ffffff" fill-rule="nonzero" node-id="141" stroke="#0c0426" stroke-linecap="round" stroke-width="1" target-height="7.200012" target-width="34.19998" target-x="307.2" target-y="505.5"></path><path d="M 307.20 596.50 L 341.40 596.50 L 341.40 603.60 L 307.20 603.60 Z" fill="#ffffff" fill-rule="nonzero" node-id="143" stroke="#0c0426" stroke-linecap="round" stroke-width="1" target-height="7.0999756" target-width="34.19998" target-x="307.2" target-y="596.5"></path><path d="M 387.90 538.20 L 397.00 538.20 L 397.00 614.30 L 387.90 614.30 Z" fill="#8c71ff" fill-rule="nonzero" node-id="145" stroke="#0c0426" stroke-linecap="round" stroke-width="1" target-height="76.099976" target-width="9.100006" target-x="387.9" target-y="538.2"></path><path d="M 390.90 551.30 L 393.00 551.30 L 393.00 599.70 L 390.90 599.70 Z" fill="#ffffff" fill-rule="nonzero" node-id="147" stroke="none" target-height="48.400024" target-width="2.100006" target-x="390.9" target-y="551.3"></path><path d="M 446.40 538.20 L 460.40 538.20 L 460.40 614.30 L 446.40 614.30 Z" fill="#c9c9c9" fill-rule="nonzero" node-id="149" stroke="#0c0426" stroke-linecap="round" stroke-width="1" target-height="76.099976" target-width="14" target-x="446.4" target-y="538.2"></path><path d="M 451.40 551.30 L 455.40 551.30 L 455.40 599.70 L 451.40 599.70 Z" fill="#ffffff" fill-rule="nonzero" node-id="151" stroke="#0c0426" stroke-linecap="butt" stroke-width="1" target-height="48.400024" target-width="4" target-x="451.4" target-y="551.3"></path><path d="M 397.00 495.10 L 431.30 495.10 L 431.30 614.30 L 397.00 614.30 Z" fill="#c9c9c9" fill-rule="nonzero" node-id="153" stroke="#0c0426" stroke-linecap="round" stroke-width="1" target-height="119.19998" target-width="34.299988" target-x="397" target-y="495.1"></path><path d="M 397.00 505.50 L 431.30 505.50 L 431.30 512.70 L 397.00 512.70 Z" fill="#ffffff" fill-rule="nonzero" node-id="155" stroke="#0c0426" stroke-linecap="round" stroke-width="1" target-height="7.200012" target-width="34.299988" target-x="397" target-y="505.5"></path><path d="M 397.00 596.50 L 431.30 596.50 L 431.30 603.60 L 397.00 603.60 Z" fill="#ffffff" fill-rule="nonzero" node-id="157" stroke="#0c0426" stroke-linecap="round" stroke-width="1" target-height="7.0999756" target-width="34.299988" target-x="397" target-y="596.5"></path><path d="M 364.70 503.30 L 387.90 503.30 L 387.90 614.30 L 364.70 614.30 Z" fill="#8c71ff" fill-rule="nonzero" node-id="159" stroke="#0c0426" stroke-linecap="butt" stroke-width="1" target-height="111" target-width="23.199982" target-x="364.7" target-y="503.3"></path><path d="M 341.40 517.30 L 364.70 517.30 L 364.70 614.30 L 341.40 614.30 Z" fill="#8c71ff" fill-rule="nonzero" node-id="161" stroke="#0c0426" stroke-linecap="butt" stroke-width="1" target-height="97" target-width="23.300018" target-x="341.4" target-y="517.3"></path><path d="M 341.40 525.80 L 364.70 525.80 L 364.70 531.60 L 341.40 531.60 Z" fill="#ffffff" fill-rule="nonzero" node-id="163" stroke="#0c0426" stroke-linecap="butt" stroke-width="1" target-height="5.799988" target-width="23.300018" target-x="341.4" target-y="525.8"></path><path d="M 341.40 599.80 L 364.70 599.80 L 364.70 605.60 L 341.40 605.60 Z" fill="#ffffff" fill-rule="nonzero" node-id="165" stroke="#0c0426" stroke-linecap="butt" stroke-width="1" target-height="5.799988" target-width="23.300018" target-x="341.4" target-y="599.8"></path><path d="M 379.20 517.30 L 378.90 518.50 L 378.20 519.50 L 377.20 520.20 L 376.00 520.50 L 374.70 520.20 L 373.70 519.50 L 373.00 518.50 L 372.70 517.30 L 373.00 516.00 L 373.70 515.00 L 374.70 514.30 L 376.00 514.00 L 377.20 514.30 L 378.20 515.00 L 378.90 516.00 L 379.20 517.30 Z" fill="#ffffff" fill-rule="nonzero" node-id="167" stroke="#0c0426" stroke-linecap="round" stroke-width="1" target-height="6.5" target-width="6.5" target-x="372.7" target-y="514"></path><g node-id="318"><path d="M 378.90 528.70 L 378.90 596.90 L 373.10 596.90 L 373.10 528.70 Z" fill="#ffffff" fill-rule="nonzero" group-id="2" node-id="171" stroke="#0c0426" stroke-linecap="butt" stroke-width="1" target-height="68.20001" target-width="5.799988" target-x="373.1" target-y="528.7"></path></g><path d="M 241.20 470.90 L 787.70 470.90" fill="none" node-id="174" stroke="#0c0426" stroke-linecap="butt" stroke-width="1" target-height="0" target-width="546.5" target-x="241.2" target-y="470.9"></path><path d="M 514.50 302.70 L 514.50 614.60" fill="none" node-id="176" stroke="#0c0426" stroke-linecap="butt" stroke-width="1" target-height="311.89996" target-width="0" target-x="514.5" target-y="302.7"></path><path d="M 364.70 426.90 L 341.10 432.40 L 339.60 432.50 L 338.20 432.10 L 337.90 430.90 L 338.10 429.70 L 344.30 406.40 L 345.40 405.10 L 347.10 404.70 L 348.60 405.40 L 366.00 422.90 L 366.50 423.60 L 366.60 425.30 L 366.20 426.00 L 364.70 426.90 Z" fill="#8c71ff" fill-rule="nonzero" node-id="178" stroke="#0c0426" stroke-linecap="butt" stroke-width="1" target-height="27.799988" target-width="28.700012" target-x="337.9" target-y="404.7"></path><path d="M 397.20 435.50 L 395.10 435.00 L 393.20 434.10 L 391.70 432.60 L 390.60 430.80 L 385.30 416.60 L 381.30 417.20 L 377.30 417.20 L 373.30 416.70 L 369.50 415.50 L 366.00 413.80 L 362.60 411.50 L 358.90 408.00 L 356.50 405.10 L 354.10 400.40 L 352.60 394.70 L 352.50 391.40 L 352.80 387.80 L 335.10 383.10 L 333.60 382.00 L 332.40 380.60 L 331.60 378.90 L 331.30 377.10 L 331.50 375.40 L 332.10 373.70 L 333.20 372.20 L 350.30 354.70 L 351.80 353.90 L 353.60 353.50 L 375.40 351.40 L 384.60 342.10 L 388.90 338.40 L 393.40 335.10 L 403.00 329.40 L 413.30 325.10 L 424.10 322.10 L 435.20 320.50 L 440.90 320.30 L 442.80 320.50 L 444.50 321.10 L 445.90 322.10 L 447.20 323.40 L 448.00 325.00 L 448.40 326.90 L 448.60 332.40 L 447.90 343.30 L 447.00 348.60 L 444.00 359.00 L 439.60 368.90 L 433.90 378.10 L 430.50 382.40 L 421.00 392.40 L 420.70 412.20 L 420.40 413.90 L 419.70 415.50 L 403.00 433.30 L 400.30 435.00 L 397.20 435.50 Z" fill="#8c71ff" fill-rule="nonzero" node-id="180" stroke="#0c0426" stroke-linecap="butt" stroke-width="1" target-height="115.20001" target-width="117.30002" target-x="331.3" target-y="320.3"></path><path d="M 433.80 341.70 L 433.60 343.40 L 433.00 344.80 L 432.00 346.10 L 430.60 347.20 L 429.20 347.80 L 427.50 348.00 L 425.90 347.80 L 424.40 347.20 L 423.10 346.10 L 422.10 344.80 L 421.50 343.40 L 421.30 341.70 L 421.50 340.10 L 422.10 338.60 L 423.10 337.30 L 424.40 336.30 L 425.90 335.70 L 427.50 335.50 L 429.20 335.70 L 430.60 336.30 L 432.00 337.30 L 433.00 338.60 L 433.60 340.10 L 433.80 341.70 Z" fill="#ffffff" fill-rule="nonzero" node-id="182" stroke="#0c0426" stroke-linecap="butt" stroke-width="1" target-height="12.5" target-width="12.5" target-x="421.3" target-y="335.5"></path><path d="M 336.10 391.40 L 324.30 403.20" fill="none" node-id="184" stroke="#0c0426" stroke-linecap="butt" stroke-width="1" target-height="11.800018" target-width="11.800018" target-x="324.3" target-y="391.4"></path><path d="M 371.70 447.10 L 357.80 461.00" fill="none" node-id="186" stroke="#0c0426" stroke-linecap="butt" stroke-width="1" target-height="13.899994" target-width="13.900024" target-x="357.8" target-y="447.1"></path><path d="M 314.30 327.40 L 313.20 325.80 L 311.70 324.50 L 309.90 323.60 L 307.90 323.20 L 306.90 321.70 L 305.50 320.40 L 303.80 319.50 L 302.00 319.10 L 300.00 319.10 L 298.20 319.60 L 296.60 320.50 L 295.20 321.80 L 293.70 321.50 L 290.70 321.80 L 288.10 323.50 L 286.60 326.20 L 286.40 327.70 L 283.90 329.20 L 282.30 331.50 L 281.90 332.80 L 282.00 336.10 L 282.60 337.70 L 283.60 339.10 L 285.00 340.10 L 286.50 340.80 L 288.40 341.10 L 313.80 341.10 L 315.50 340.80 L 317.00 340.10 L 319.40 337.80 L 320.00 336.30 L 320.30 334.50 L 320.20 332.80 L 319.60 331.20 L 318.70 329.80 L 317.50 328.70 L 316.00 327.90 L 314.30 327.40 Z" fill="#ffffff" fill-rule="nonzero" id="路径" node-id="49" stroke="#0c0426" stroke-linecap="butt" stroke-width="1" target-height="22" target-width="38.399994" target-x="281.9" target-y="319.1"></path><path d="M 285.40 361.50 L 283.10 359.20 L 280.00 358.40 L 278.80 357.10 L 277.40 356.10 L 275.90 355.50 L 272.80 355.40 L 270.20 356.40 L 269.10 357.30 L 267.30 357.00 L 264.70 357.60 L 262.60 359.20 L 261.60 361.70 L 260.00 362.30 L 258.80 363.40 L 258.00 364.80 L 257.60 366.50 L 258.40 369.00 L 260.40 370.80 L 261.70 371.30 L 284.90 371.50 L 287.60 371.00 L 289.70 369.10 L 290.30 367.90 L 290.60 366.50 L 290.40 365.20 L 289.90 364.10 L 288.10 362.30 L 285.40 361.50 Z" fill="#ffffff" fill-rule="nonzero" id="路径-2" node-id="50" stroke="#0c0426" stroke-linecap="butt" stroke-width="1" target-height="16.100006" target-width="33" target-x="257.6" target-y="355.4"></path><path d="M 495.20 344.80 L 494.00 343.00 L 492.40 341.60 L 490.50 340.80 L 488.30 340.50 L 486.70 340.60 L 483.70 342.00 L 482.80 340.50 L 480.20 338.60 L 477.10 337.80 L 475.40 337.90 L 473.70 338.50 L 471.10 340.40 L 469.50 343.20 L 469.20 344.90 L 467.50 345.60 L 466.10 346.70 L 465.00 348.10 L 464.20 349.80 L 463.80 351.50 L 463.90 353.40 L 464.40 355.20 L 465.30 356.80 L 466.50 358.10 L 468.00 359.10 L 469.60 359.70 L 471.50 360.00 L 493.00 360.00 L 494.90 359.70 L 496.60 359.10 L 498.10 358.10 L 499.30 356.80 L 500.20 355.20 L 500.70 353.40 L 500.70 351.40 L 500.30 349.70 L 499.60 348.10 L 498.40 346.70 L 497.00 345.60 L 495.20 344.80 Z" fill="#ffffff" fill-rule="nonzero" id="路径-3" node-id="51" stroke="#0c0426" stroke-linecap="butt" stroke-width="1" target-height="22.200012" target-width="36.900024" target-x="463.8" target-y="337.8"></path><g node-id="319"><g node-id="329"><path d="M 763.30 363.50 L 541.70 363.50 L 541.70 350.40 L 763.30 350.40 Z" fill="#0c0426" fill-opacity="0.05" fill-rule="nonzero" group-id="3,13" node-id="195" stroke="none" target-height="13.100006" target-width="221.59998" target-x="541.7" target-y="350.4"></path></g><g node-id="330"><path d="M 763.30 392.20 L 541.70 392.20 L 541.70 379.10 L 763.30 379.10 Z" fill="#0c0426" fill-opacity="0.05" fill-rule="nonzero" group-id="3,14" node-id="200" stroke="none" target-height="13.100006" target-width="221.59998" target-x="541.7" target-y="379.1"></path></g><g node-id="331"><path d="M 763.30 420.90 L 541.70 420.90 L 541.70 407.70 L 763.30 407.70 Z" fill="#0c0426" fill-opacity="0.05" fill-rule="nonzero" group-id="3,15" node-id="205" stroke="none" target-height="13.199982" target-width="221.59998" target-x="541.7" target-y="407.7"></path></g><path d="M 763.30 449.50 L 541.70 449.50 L 541.70 436.40 L 763.30 436.40 Z" fill="#0c0426" fill-opacity="0.05" fill-rule="nonzero" group-id="3,16" node-id="210" stroke="none" target-height="13.100006" target-width="221.59998" target-x="541.7" target-y="436.4"></path></g><path d="M 553.50 365.40 L 570.10 365.40 L 570.10 449.50 L 553.50 449.50 Z" fill="#8c71ff" fill-rule="nonzero" node-id="214" stroke="none" target-height="84.100006" target-width="16.599976" target-x="553.5" target-y="365.4"></path><path d="M 576.20 330.70 L 592.80 330.70 L 592.80 449.50 L 576.20 449.50 Z" fill="#0c0426" fill-rule="nonzero" node-id="216" stroke="none" target-height="118.79999" target-width="16.599976" target-x="576.2" target-y="330.7"></path><path d="M 598.90 373.40 L 615.50 373.40 L 615.50 449.50 L 598.90 449.50 Z" fill="#8c71ff" fill-rule="nonzero" node-id="218" stroke="none" target-height="76.100006" target-width="16.599976" target-x="598.9" target-y="373.4"></path><path d="M 621.60 418.80 L 638.20 418.80 L 638.20 449.50 L 621.60 449.50 Z" fill="#0c0426" fill-rule="nonzero" node-id="220" stroke="none" target-height="30.700012" target-width="16.600037" target-x="621.6" target-y="418.8"></path><path d="M 644.30 358.80 L 660.90 358.80 L 660.90 449.50 L 644.30 449.50 Z" fill="#8c71ff" fill-rule="nonzero" node-id="222" stroke="none" target-height="90.70001" target-width="16.600037" target-x="644.3" target-y="358.8"></path><path d="M 666.90 377.40 L 683.50 377.40 L 683.50 449.50 L 666.90 449.50 Z" fill="#0c0426" fill-rule="nonzero" node-id="224" stroke="none" target-height="72.100006" target-width="16.599976" target-x="666.9" target-y="377.4"></path><path d="M 689.60 422.80 L 706.20 422.80 L 706.20 449.50 L 689.60 449.50 Z" fill="#8c71ff" fill-rule="nonzero" node-id="226" stroke="none" target-height="26.700012" target-width="16.600037" target-x="689.6" target-y="422.8"></path><path d="M 712.30 397.80 L 728.90 397.80 L 728.90 449.50 L 712.30 449.50 Z" fill="#0c0426" fill-rule="nonzero" node-id="228" stroke="none" target-height="51.700012" target-width="16.600037" target-x="712.3" target-y="397.8"></path><path d="M 735.00 385.60 L 751.60 385.60 L 751.60 449.50 L 735.00 449.50 Z" fill="#8c71ff" fill-rule="nonzero" node-id="230" stroke="none" target-height="63.899994" target-width="16.599976" target-x="735" target-y="385.6"></path><path d="M 677.10 529.10 L 679.50 520.30 L 672.30 518.30 L 672.30 514.70 L 671.80 511.30 L 670.90 507.90 L 677.40 504.10 L 672.80 496.20 L 666.30 500.00 L 663.80 497.50 L 661.00 495.30 L 658.00 493.60 L 659.90 486.40 L 651.00 483.90 L 649.10 491.20 L 645.50 491.10 L 642.10 491.60 L 638.60 492.60 L 634.90 486.10 L 627.00 490.60 L 630.80 497.10 L 628.20 499.60 L 626.10 502.40 L 624.40 505.50 L 617.10 503.50 L 614.70 512.40 L 622.00 514.40 L 621.90 517.90 L 622.40 521.40 L 623.40 524.80 L 616.90 528.60 L 621.40 536.60 L 627.90 532.80 L 630.40 535.30 L 633.20 537.50 L 636.30 539.20 L 634.30 546.50 L 643.20 548.80 L 645.10 541.60 L 648.60 541.60 L 652.10 541.20 L 655.50 540.20 L 659.30 546.70 L 667.30 542.10 L 663.50 535.60 L 666.00 533.10 L 668.20 530.40 L 669.90 527.30 Z M 642.90 531.90 L 640.20 530.80 L 637.80 529.40 L 635.70 527.60 L 633.90 525.50 L 632.50 523.20 L 631.60 520.60 L 631.10 517.90 L 631.10 515.10 L 631.60 512.20 L 632.60 509.40 L 634.00 507.00 L 635.80 504.90 L 637.90 503.10 L 640.30 501.80 L 642.90 500.80 L 645.60 500.30 L 648.40 500.30 L 651.30 500.80 L 654.00 501.80 L 656.40 503.20 L 658.50 505.00 L 660.30 507.10 L 661.70 509.50 L 662.60 512.10 L 663.10 514.80 L 663.10 517.60 L 662.70 520.50 L 661.60 523.30 L 660.20 525.70 L 658.40 527.80 L 656.30 529.50 L 653.90 530.90 L 651.40 531.80 L 648.60 532.30 L 645.80 532.40 L 642.90 531.90 Z" fill="#ffffff" fill-rule="nonzero" node-id="232" stroke="#0c0426" stroke-linecap="butt" stroke-width="1" target-height="64.899994" target-width="64.79999" target-x="614.7" target-y="483.9"></path><path d="M 587.70 539.80 L 589.70 532.20 L 583.60 530.60 L 583.60 527.60 L 583.20 524.60 L 582.40 521.70 L 587.90 518.60 L 584.00 511.80 L 578.50 515.00 L 576.40 512.90 L 574.10 511.10 L 571.50 509.60 L 573.10 503.40 L 565.60 501.40 L 563.90 507.60 L 560.90 507.50 L 558.00 507.90 L 555.10 508.70 L 551.90 503.20 L 545.20 507.10 L 548.30 512.60 L 546.20 514.70 L 544.40 517.10 L 542.90 519.70 L 536.80 518.00 L 534.80 525.50 L 540.90 527.20 L 540.90 530.20 L 541.30 533.10 L 542.10 536.00 L 536.60 539.20 L 540.50 545.90 L 546.00 542.80 L 548.10 544.90 L 550.40 546.70 L 553.10 548.20 L 551.40 554.30 L 558.90 556.30 L 560.60 550.20 L 563.60 550.20 L 566.50 549.80 L 569.40 549.00 L 572.60 554.50 L 579.30 550.60 L 576.20 545.10 L 578.30 543.00 L 580.10 540.70 L 581.60 538.10 Z M 558.70 542.10 L 556.40 541.20 L 554.30 540.00 L 551.00 536.70 L 549.10 532.50 L 548.70 530.20 L 548.60 527.80 L 549.10 525.40 L 549.90 523.00 L 551.10 521.00 L 552.60 519.20 L 554.50 517.70 L 558.60 515.70 L 560.90 515.30 L 563.30 515.30 L 565.80 515.70 L 568.10 516.60 L 570.20 517.80 L 572.00 519.30 L 573.50 521.10 L 575.40 525.30 L 575.80 527.60 L 575.90 530.00 L 575.40 532.40 L 574.50 534.90 L 573.10 537.20 L 571.30 539.10 L 569.10 540.70 L 566.60 541.80 L 564.00 542.40 L 561.40 542.50 L 558.70 542.10 Z" fill="#ffffff" fill-rule="nonzero" node-id="234" stroke="#0c0426" stroke-linecap="butt" stroke-width="1" target-height="54.899994" target-width="54.900024" target-x="534.8" target-y="501.4"></path><path d="M 640.90 582.30 L 640.90 575.40 L 635.30 575.40 L 633.60 570.40 L 632.30 568.10 L 636.30 564.10 L 631.40 559.30 L 627.40 563.30 L 625.10 561.90 L 620.10 560.30 L 620.10 554.60 L 613.20 554.60 L 613.20 560.20 L 608.20 561.90 L 605.90 563.20 L 601.90 559.20 L 597.00 564.20 L 601.00 568.20 L 598.70 572.90 L 598.00 575.50 L 592.40 575.50 L 592.40 582.30 L 598.00 582.30 L 599.70 587.30 L 601.00 589.60 L 597.00 593.60 L 601.90 598.50 L 605.90 594.50 L 608.20 595.90 L 613.20 597.50 L 613.20 603.20 L 620.10 603.20 L 620.10 597.50 L 622.60 596.90 L 627.40 594.50 L 631.40 598.50 L 636.20 593.60 L 632.20 589.60 L 633.60 587.30 L 635.20 582.30 Z M 616.60 591.00 L 614.20 590.80 L 612.00 590.10 L 609.90 589.00 L 608.10 587.50 L 606.60 585.70 L 605.50 583.50 L 604.80 581.20 L 604.50 578.90 L 604.80 576.50 L 605.40 574.30 L 606.50 572.20 L 608.10 570.30 L 610.00 568.80 L 612.00 567.70 L 614.30 567.00 L 616.60 566.80 L 618.90 567.00 L 621.30 567.70 L 623.40 568.90 L 625.20 570.40 L 626.70 572.20 L 627.80 574.20 L 628.50 576.50 L 628.70 578.90 L 628.00 583.10 L 627.10 585.00 L 624.40 588.10 L 620.90 590.20 L 616.60 591.00 Z" fill="#ffffff" fill-rule="nonzero" node-id="236" stroke="#0c0426" stroke-linecap="butt" stroke-width="1" target-height="48.600037" target-width="48.5" target-x="592.4" target-y="554.6"></path><path d="M 666.70 398.90 L 853.80 398.90 L 853.80 745.90 L 666.70 745.90 Z" fill="#ffffff" fill-rule="nonzero" node-id="238" stroke="#0c0426" stroke-linecap="round" stroke-width="1" target-height="347.00003" target-width="187.09998" target-x="666.7" target-y="398.9"></path><path d="M 666.70 394.30 L 853.80 394.30 L 853.80 419.80 L 666.70 419.80 Z" fill="#0c0426" fill-rule="nonzero" node-id="240" stroke="none" target-height="25.5" target-width="187.09998" target-x="666.7" target-y="394.3"></path><path d="M 829.60 413.90 L 829.40 412.60 L 828.70 411.60 L 827.70 410.90 L 826.40 410.70 L 825.20 410.90 L 824.20 411.60 L 823.50 412.60 L 823.20 413.90 L 823.50 415.10 L 824.20 416.10 L 825.20 416.80 L 826.40 417.10 L 827.70 416.80 L 828.70 416.10 L 829.40 415.10 L 829.60 413.90 Z" fill="#ffffff" fill-rule="nonzero" node-id="242" stroke="none" target-height="6.399994" target-width="6.3999634" target-x="823.2" target-y="410.7"></path><path d="M 838.40 413.90 L 838.10 412.60 L 837.40 411.60 L 836.40 410.90 L 835.10 410.70 L 833.90 410.90 L 832.90 411.60 L 832.20 412.60 L 831.90 413.90 L 832.20 415.10 L 832.90 416.10 L 833.90 416.80 L 835.10 417.10 L 836.40 416.80 L 837.40 416.10 L 838.10 415.10 L 838.40 413.90 Z" fill="#ffffff" fill-rule="nonzero" node-id="244" stroke="none" target-height="6.399994" target-width="6.5" target-x="831.9" target-y="410.7"></path><path d="M 847.10 413.90 L 846.80 412.60 L 846.10 411.60 L 845.10 410.90 L 843.80 410.70 L 842.60 410.90 L 841.60 411.60 L 840.90 412.60 L 840.60 413.90 L 840.90 415.10 L 841.60 416.10 L 842.60 416.80 L 843.90 417.10 L 845.10 416.80 L 846.10 416.10 L 846.80 415.10 L 847.10 413.90 Z" fill="#ffffff" fill-rule="nonzero" node-id="246" stroke="none" target-height="6.399994" target-width="6.5" target-x="840.6" target-y="410.7"></path><path d="M 666.70 718.60 L 853.80 718.60 L 853.80 745.90 L 666.70 745.90 Z" fill="#0c0426" fill-rule="nonzero" node-id="248" stroke="none" target-height="27.300049" target-width="187.09998" target-x="666.7" target-y="718.6"></path><path d="M 859.40 467.20 L 861.10 466.50 L 861.80 464.90 L 861.80 441.70 L 861.10 440.10 L 860.30 439.60 L 859.00 439.40 L 859.00 396.20 L 858.70 393.50 L 858.10 391.00 L 857.00 388.70 L 855.50 386.60 L 853.70 384.80 L 851.60 383.30 L 849.30 382.20 L 846.80 381.50 L 844.10 381.30 L 679.80 381.30 L 677.10 381.50 L 674.60 382.20 L 672.30 383.30 L 670.20 384.80 L 668.40 386.60 L 667.00 388.70 L 665.90 391.00 L 665.20 393.50 L 664.90 396.20 L 664.90 745.40 L 665.20 748.30 L 666.10 751.10 L 667.40 753.60 L 669.30 755.90 L 671.60 757.80 L 674.10 759.20 L 676.90 760.00 L 679.80 760.30 L 844.10 760.30 L 847.00 760.00 L 849.80 759.20 L 852.40 757.80 L 854.60 755.90 L 856.50 753.60 L 857.90 751.10 L 858.70 748.30 L 859.00 745.40 L 859.00 533.00 L 860.30 532.80 L 861.10 532.30 L 861.80 530.70 L 861.80 507.50 L 861.10 505.90 L 860.30 505.40 L 859.00 505.20 L 859.00 500.00 L 860.30 499.80 L 861.10 499.30 L 861.80 497.70 L 861.80 474.60 L 861.10 473.00 L 860.30 472.50 L 859.00 472.30 L 859.00 467.10 L 859.40 467.20 Z M 850.40 737.80 L 673.60 737.80 L 673.60 407.00 L 850.40 407.00 Z" fill="#8c71ff" fill-rule="nonzero" node-id="250" stroke="#0c0426" stroke-linecap="round" stroke-width="1" target-height="379" target-width="196.89996" target-x="664.9" target-y="381.3"></path><path d="M 755.10 493.10 L 754.50 496.60 L 753.70 498.10 L 751.50 500.70 L 748.60 502.50 L 745.10 503.10 L 741.60 502.50 L 738.70 500.70 L 736.50 498.10 L 735.30 494.90 L 735.30 491.30 L 735.80 489.60 L 737.50 486.70 L 740.10 484.50 L 741.60 483.80 L 745.10 483.10 L 748.60 483.80 L 750.10 484.50 L 752.70 486.70 L 754.50 489.60 L 755.10 493.10 Z" fill="#ffffff" fill-rule="nonzero" node-id="252" stroke="#0c0426" stroke-linecap="butt" stroke-width="1" target-height="20" target-width="19.799988" target-x="735.3" target-y="483.1"></path><g node-id="320"><path d="M 731.90 507.20 L 732.50 509.00 L 732.70 512.60 L 731.40 516.00 L 729.00 518.70 L 725.60 520.20 L 722.00 520.40 L 718.60 519.10 L 715.90 516.60 L 714.40 513.30 L 714.20 509.70 L 715.50 506.20 L 717.90 503.50 L 721.30 502.00 L 724.90 501.90 L 726.70 502.30 L 729.80 504.30 L 731.90 507.20 Z" fill="#ffffff" fill-rule="nonzero" group-id="4" node-id="256" stroke="#0c0426" stroke-linecap="butt" stroke-width="1" target-height="18.50003" target-width="18.5" target-x="714.2" target-y="501.9"></path></g><g node-id="321"><path d="M 721.90 533.20 L 722.40 534.80 L 722.60 538.20 L 721.40 541.40 L 719.10 543.90 L 716.00 545.30 L 712.60 545.50 L 709.40 544.30 L 706.90 542.00 L 705.50 538.80 L 705.40 535.40 L 706.50 532.20 L 708.80 529.70 L 711.90 528.30 L 715.30 528.20 L 717.00 528.60 L 719.90 530.40 L 721.90 533.20 Z" fill="#ffffff" fill-rule="nonzero" group-id="5" node-id="261" stroke="#0c0426" stroke-linecap="butt" stroke-width="1" target-height="17.299988" target-width="17.199951" target-x="705.4" target-y="528.2"></path></g><g node-id="322"><path d="M 726.00 561.30 L 726.70 564.40 L 726.20 567.50 L 724.60 570.20 L 722.10 572.10 L 719.00 572.80 L 715.90 572.30 L 713.20 570.60 L 711.30 568.00 L 710.60 564.90 L 711.10 561.80 L 712.70 559.10 L 715.30 557.30 L 718.30 556.50 L 721.40 557.00 L 724.10 558.70 L 726.00 561.30 Z" fill="#ffffff" fill-rule="nonzero" group-id="6" node-id="266" stroke="#0c0426" stroke-linecap="butt" stroke-width="1" target-height="16.299988" target-width="16.100037" target-x="710.6" target-y="556.5"></path></g><g node-id="323"><path d="M 743.50 583.20 L 744.10 585.20 L 744.20 587.10 L 743.70 589.00 L 742.90 590.70 L 741.60 592.10 L 739.90 593.20 L 738.00 593.80 L 736.10 593.80 L 734.20 593.40 L 732.50 592.50 L 731.10 591.20 L 730.00 589.40 L 729.40 587.50 L 729.30 585.60 L 729.80 583.70 L 730.60 582.00 L 731.90 580.60 L 733.60 579.50 L 735.50 578.90 L 737.40 578.90 L 739.30 579.30 L 741.00 580.20 L 742.40 581.50 L 743.50 583.20 Z" fill="#ffffff" fill-rule="nonzero" group-id="7" node-id="271" stroke="#0c0426" stroke-linecap="butt" stroke-width="1" target-height="14.899963" target-width="14.900024" target-x="729.3" target-y="578.9"></path></g><g node-id="324"><path d="M 768.60 593.00 L 769.20 595.60 L 768.90 598.30 L 768.00 599.90 L 766.90 601.20 L 765.30 602.10 L 763.60 602.70 L 761.90 602.70 L 760.10 602.30 L 758.90 601.70 L 757.00 599.90 L 755.80 597.40 L 755.70 594.70 L 756.90 591.80 L 758.00 590.50 L 759.50 589.60 L 761.30 589.00 L 763.00 589.00 L 764.80 589.40 L 767.00 590.80 L 768.60 593.00 Z" fill="#ffffff" fill-rule="nonzero" group-id="8" node-id="276" stroke="#0c0426" stroke-linecap="butt" stroke-width="1" target-height="13.700012" target-width="13.5" target-x="755.7" target-y="589"></path></g><g node-id="325"><path d="M 798.20 588.10 L 798.70 589.70 L 798.80 591.30 L 798.50 592.90 L 797.70 594.40 L 796.70 595.60 L 795.30 596.40 L 793.80 596.90 L 792.20 597.00 L 790.60 596.60 L 789.10 595.80 L 788.00 594.70 L 787.10 593.30 L 786.60 591.60 L 786.50 590.10 L 786.80 588.40 L 787.60 587.00 L 788.60 585.80 L 790.00 584.90 L 791.60 584.40 L 793.10 584.40 L 794.70 584.80 L 796.20 585.60 L 797.30 586.70 L 798.20 588.10 Z" fill="#ffffff" fill-rule="nonzero" group-id="9" node-id="281" stroke="#0c0426" stroke-linecap="butt" stroke-width="1.0022475" target-height="12.599976" target-width="12.299988" target-x="786.5" target-y="584.4"></path></g><g node-id="326"><path d="M 817.00 570.70 L 817.40 572.30 L 817.20 575.10 L 815.60 577.40 L 814.40 578.20 L 812.90 578.70 L 810.10 578.30 L 807.80 576.70 L 807.00 575.30 L 806.50 573.80 L 806.70 571.00 L 808.30 568.70 L 809.60 567.90 L 811.00 567.40 L 813.80 567.70 L 816.10 569.40 L 817.00 570.70 Z" fill="#ffffff" fill-rule="nonzero" group-id="10" node-id="286" stroke="#0c0426" stroke-linecap="butt" stroke-width="1" target-height="11.299988" target-width="10.900024" target-x="806.5" target-y="567.4"></path></g><g node-id="327"><path d="M 825.90 545.30 L 826.30 546.70 L 826.10 549.20 L 824.70 551.30 L 823.60 552.00 L 821.10 552.40 L 818.70 551.50 L 817.80 550.60 L 817.00 549.40 L 816.60 546.80 L 817.40 544.40 L 819.30 542.70 L 820.60 542.30 L 823.10 542.60 L 825.10 544.10 L 825.90 545.30 Z" fill="#ffffff" fill-rule="nonzero" group-id="11" node-id="291" stroke="#0c0426" stroke-linecap="butt" stroke-width="1" target-height="10.100037" target-width="9.700012" target-x="816.6" target-y="542.3"></path></g><g node-id="328"><path d="M 820.60 517.70 L 821.00 518.90 L 820.80 521.20 L 819.60 523.00 L 818.60 523.60 L 816.40 523.90 L 814.40 523.10 L 813.60 522.30 L 812.90 521.30 L 812.50 519.00 L 813.20 516.90 L 814.90 515.40 L 816.00 515.10 L 818.10 515.40 L 819.90 516.70 L 820.60 517.70 Z" fill="#ffffff" fill-rule="nonzero" group-id="12" node-id="296" stroke="#0c0426" stroke-linecap="butt" stroke-width="1" target-height="8.800049" target-width="8.5" target-x="812.5" target-y="515.1"></path></g><path d="M 798.00 548.40 L 766.60 550.00 L 768.10 508.50 L 768.30 508.50 L 769.80 548.30 L 768.20 546.70 L 798.00 548.20 L 798.00 548.40 Z" fill="#0c0426" fill-rule="nonzero" node-id="299" stroke="none" target-height="41.5" target-width="31.400024" target-x="766.6" target-y="508.5"></path><path d="M 698.10 640.70 L 828.60 640.70 L 830.10 640.90 L 832.40 642.30 L 833.70 644.60 L 833.90 646.00 L 833.70 647.50 L 832.40 649.80 L 830.10 651.10 L 828.60 651.30 L 698.10 651.30 L 696.60 651.10 L 694.30 649.80 L 693.00 647.50 L 692.80 646.00 L 693.00 644.60 L 694.30 642.30 L 696.60 640.90 L 698.10 640.70 Z" fill="#ffffff" fill-rule="nonzero" node-id="301" stroke="#0c0426" stroke-linecap="butt" stroke-width="1" target-height="10.599976" target-width="141.10004" target-x="692.8" target-y="640.7"></path><path d="M 698.10 640.70 L 746.30 640.90 L 747.50 641.40 L 749.40 643.30 L 750.20 646.00 L 749.40 648.70 L 747.50 650.60 L 746.30 651.10 L 744.90 651.30 L 696.60 651.10 L 695.40 650.60 L 693.50 648.70 L 692.80 646.00 L 693.00 644.60 L 694.30 642.30 L 696.60 640.90 L 698.10 640.70 Z" fill="#8c71ff" fill-rule="nonzero" node-id="303" stroke="#0c0426" stroke-linecap="round" stroke-width="1" target-height="10.599976" target-width="57.400024" target-x="692.8" target-y="640.7"></path><path d="M 170.90 564.50 L 175.10 565.50 L 180.00 566.00 L 185.80 566.10 L 183.40 558.80 L 180.80 554.70 L 176.90 550.60 L 172.30 547.50 L 169.20 546.60 L 166.20 547.10 L 163.80 548.70 L 162.80 549.90 L 161.80 552.70 L 162.00 555.70 L 162.70 557.60 L 163.90 559.40 L 167.20 562.40 L 170.90 564.50 Z" fill="#0c0426" fill-rule="nonzero" node-id="305" stroke="none" target-height="19.5" target-width="24" target-x="161.8" target-y="546.6"></path><path d="M 174.60 595.20 L 178.60 595.10 L 183.30 594.30 L 189.30 592.90 L 191.90 600.90 L 195.00 608.70 L 199.20 617.70 L 197.40 615.20 L 195.90 613.70 L 191.50 610.40 L 186.30 607.90 L 182.10 607.10 L 179.10 607.70 L 177.30 608.80 L 176.00 610.20 L 175.20 612.00 L 175.00 613.90 L 175.20 615.90 L 175.90 617.80 L 177.10 619.50 L 178.80 620.90 L 180.70 622.10 L 184.90 623.60 L 189.10 624.10 L 191.90 623.80 L 201.20 621.80 L 213.40 647.20 L 210.40 643.50 L 206.00 640.20 L 200.90 637.80 L 196.60 637.00 L 193.60 637.50 L 191.20 639.30 L 189.80 641.90 L 189.50 643.40 L 189.80 646.30 L 191.70 649.40 L 193.30 650.80 L 195.20 651.90 L 199.40 653.40 L 203.60 653.90 L 206.30 653.70 L 215.40 651.70 L 218.90 661.70 L 222.90 678.60 L 220.00 672.70 L 217.00 668.90 L 212.70 665.30 L 207.80 662.80 L 206.10 662.40 L 203.10 662.50 L 200.50 663.80 L 198.60 666.20 L 198.10 667.60 L 198.00 670.60 L 199.40 673.90 L 200.80 675.50 L 202.40 676.90 L 206.30 679.10 L 208.30 679.80 L 212.20 680.30 L 216.90 680.30 L 223.10 679.80 L 227.00 703.10 L 231.00 703.10 L 228.20 687.20 L 226.30 678.20 L 234.50 674.30 L 237.60 676.90 L 246.50 682.10 L 237.20 703.00 L 241.50 703.00 L 250.00 682.60 L 256.20 683.60 L 260.80 684.00 L 264.80 683.70 L 268.80 682.40 L 270.80 681.30 L 274.10 678.50 L 275.20 676.70 L 275.70 675.30 L 275.80 672.30 L 275.40 670.90 L 273.80 668.40 L 271.30 666.80 L 268.20 666.50 L 266.50 666.80 L 261.50 668.90 L 256.90 672.30 L 253.60 675.80 L 250.60 680.90 L 255.80 665.60 L 258.90 651.40 L 268.00 654.10 L 270.70 654.50 L 274.90 654.40 L 279.20 653.20 L 281.20 652.20 L 282.90 650.90 L 284.30 649.30 L 285.40 646.50 L 285.40 643.60 L 284.90 642.10 L 283.10 639.80 L 280.50 638.40 L 277.20 638.20 L 271.90 639.50 L 266.90 642.10 L 263.10 645.10 L 259.10 650.10 L 260.00 643.90 L 262.50 620.20 L 268.30 622.10 L 272.90 623.30 L 276.90 623.60 L 279.00 623.40 L 283.30 622.20 L 287.00 619.90 L 288.30 618.30 L 289.20 616.40 L 289.60 614.40 L 289.40 612.50 L 288.80 610.70 L 287.60 609.10 L 285.90 607.90 L 283.00 607.10 L 278.60 607.60 L 273.30 609.70 L 268.70 612.60 L 267.10 614.10 L 262.50 619.90 L 264.00 607.80 L 265.50 599.70 L 267.50 591.80 L 273.20 593.70 L 280.20 595.20 L 282.10 595.20 L 286.30 594.50 L 290.30 592.80 L 292.10 591.50 L 294.20 588.60 L 294.80 585.60 L 294.10 582.70 L 292.30 580.30 L 291.00 579.50 L 288.10 578.70 L 283.70 579.20 L 278.40 581.30 L 273.80 584.20 L 272.20 585.60 L 267.50 591.50 L 267.80 590.60 L 271.60 580.40 L 274.00 575.50 L 278.30 567.90 L 284.30 570.60 L 288.40 572.10 L 292.10 572.80 L 296.40 572.50 L 298.50 572.00 L 302.50 570.20 L 304.00 568.80 L 304.90 567.50 L 305.80 564.70 L 305.40 561.70 L 303.90 559.20 L 302.80 558.20 L 299.90 557.10 L 295.60 557.10 L 292.80 557.70 L 287.50 559.70 L 283.40 562.20 L 279.50 566.10 L 285.40 557.40 L 292.60 548.30 L 299.10 548.00 L 305.40 546.90 L 308.80 545.30 L 312.40 542.70 L 315.00 539.20 L 315.60 537.20 L 315.80 535.20 L 315.40 533.20 L 314.60 531.40 L 313.30 530.00 L 311.70 529.00 L 309.60 528.40 L 308.10 528.50 L 305.00 529.40 L 302.80 530.80 L 298.50 534.70 L 296.80 536.80 L 294.30 541.00 L 292.20 548.40 L 284.90 557.10 L 280.90 562.50 L 276.90 568.70 L 273.20 575.00 L 268.40 585.00 L 266.40 590.30 L 266.30 583.20 L 265.10 578.60 L 262.70 573.50 L 259.30 569.10 L 256.60 567.30 L 253.70 566.80 L 250.80 567.60 L 249.60 568.40 L 247.70 570.70 L 246.90 573.60 L 247.00 575.70 L 247.60 577.80 L 248.50 579.80 L 251.20 583.30 L 252.70 584.80 L 256.10 587.00 L 260.40 588.90 L 266.20 591.00 L 263.90 599.10 L 262.20 607.40 L 260.70 617.20 L 260.60 614.10 L 260.20 612.00 L 258.40 606.80 L 255.40 601.90 L 252.30 598.90 L 249.50 597.70 L 246.50 597.90 L 243.90 599.20 L 242.80 600.30 L 241.50 602.90 L 241.40 606.50 L 241.90 608.60 L 242.90 610.60 L 245.50 614.10 L 248.80 616.90 L 251.30 618.20 L 260.10 621.70 L 257.40 643.40 L 256.30 649.60 L 255.90 644.80 L 254.00 639.70 L 251.10 634.80 L 248.00 631.80 L 245.20 630.60 L 242.20 630.70 L 239.50 632.10 L 238.50 633.20 L 237.10 635.80 L 237.00 639.40 L 237.60 641.50 L 238.50 643.50 L 241.20 647.00 L 244.40 649.70 L 246.70 651.00 L 255.40 654.40 L 254.00 660.60 L 251.60 668.60 L 246.90 680.90 L 247.80 674.40 L 247.50 670.90 L 246.80 667.50 L 245.60 664.20 L 244.10 661.00 L 243.60 658.00 L 242.10 655.40 L 239.60 653.70 L 236.70 653.20 L 235.20 653.40 L 232.50 654.80 L 229.70 658.00 L 227.10 663.20 L 225.70 668.40 L 225.40 670.50 L 225.80 676.50 L 221.70 660.80 L 216.40 647.30 L 225.50 644.60 L 228.00 643.40 L 229.90 642.30 L 233.00 639.40 L 235.40 635.70 L 236.20 633.70 L 236.30 630.10 L 235.20 627.40 L 233.00 625.30 L 230.20 624.30 L 228.70 624.30 L 225.80 625.30 L 222.50 628.10 L 219.20 632.70 L 217.00 637.70 L 216.40 639.80 L 215.80 646.10 L 213.20 640.50 L 202.20 619.30 L 208.10 617.70 L 212.60 616.10 L 216.20 614.20 L 219.30 611.20 L 221.80 607.60 L 222.50 605.50 L 222.60 601.90 L 221.50 599.20 L 219.30 597.10 L 216.50 596.10 L 215.00 596.10 L 212.10 597.10 L 208.80 599.90 L 205.50 604.60 L 203.30 609.50 L 202.70 611.60 L 202.10 619.00 L 196.60 608.00 L 193.50 600.50 L 190.80 592.80 L 196.50 591.20 L 203.20 588.60 L 204.80 587.60 L 207.90 584.70 L 210.30 581.00 L 211.00 579.00 L 211.20 575.40 L 210.10 572.70 L 207.90 570.60 L 205.10 569.60 L 203.60 569.60 L 200.70 570.50 L 197.40 573.30 L 194.10 578.00 L 191.80 583.00 L 191.30 585.10 L 190.60 592.60 L 190.30 591.70 L 188.00 581.00 L 187.30 575.60 L 186.70 566.90 L 193.20 565.90 L 197.40 564.80 L 200.90 563.30 L 204.40 560.70 L 205.90 559.10 L 208.10 555.50 L 208.60 553.40 L 208.60 551.90 L 207.80 549.10 L 205.90 546.80 L 203.20 545.50 L 201.70 545.30 L 198.70 545.90 L 195.10 548.30 L 193.10 550.40 L 189.80 555.00 L 187.80 559.30 L 186.70 564.70 L 186.80 554.20 L 187.80 542.70 L 193.10 538.70 L 196.30 535.80 L 198.70 533.00 L 199.70 531.20 L 201.20 527.00 L 201.50 524.80 L 201.40 522.70 L 200.90 520.70 L 199.30 518.10 L 196.90 516.50 L 194.00 515.90 L 191.10 516.70 L 189.80 517.50 L 187.80 520.00 L 186.60 522.40 L 185.20 528.00 L 185.00 530.70 L 185.20 535.50 L 187.50 542.90 L 186.30 554.20 L 185.90 560.90 L 185.90 568.30 L 186.30 575.70 L 187.80 586.60 L 189.10 592.20 L 185.10 586.30 L 183.60 584.80 L 179.20 581.50 L 174.00 579.10 L 169.80 578.20 L 166.80 578.80 L 164.40 580.60 L 162.90 583.20 L 162.60 584.70 L 163.00 587.60 L 164.90 590.70 L 168.40 593.30 L 170.40 594.10 L 174.60 595.20 Z" fill="#0c0426" fill-rule="nonzero" node-id="307" stroke="none" target-height="187.19995" target-width="153.19998" target-x="162.6" target-y="515.9"></path><path d="M 278.10 566.80 L 280.10 559.30 L 280.20 554.50 L 279.20 548.90 L 278.30 546.20 L 277.10 543.80 L 275.00 541.40 L 273.70 540.60 L 270.80 539.90 L 267.90 540.50 L 266.60 541.30 L 264.60 543.50 L 264.00 544.90 L 263.50 546.90 L 263.50 549.10 L 264.60 553.40 L 266.60 557.20 L 267.70 558.70 L 273.30 563.50 L 278.10 566.80 Z" fill="#0c0426" fill-rule="nonzero" node-id="309" stroke="none" target-height="26.899963" target-width="16.700012" target-x="263.5" target-y="539.9"></path><path d="M 264.40 760.30 L 206.40 760.30 L 199.20 696.00 L 271.60 696.00 L 264.40 760.30 Z" fill="#ffffff" fill-rule="nonzero" node-id="311" stroke="#0c0426" stroke-linecap="round" stroke-width="1" target-height="64.29999" target-width="72.40001" target-x="199.2" target-y="696"></path><path d="M 200.50 707.70 L 201.20 714.00 L 269.60 714.00 L 270.30 707.70 L 200.50 707.70 Z" fill="#0c0426" fill-rule="nonzero" node-id="313" stroke="none" target-height="6.299988" target-width="69.79999" target-x="200.5" target-y="707.7"></path><path d="M 268.10 727.70 L 268.80 721.50 L 202.10 721.50 L 202.80 727.70 L 268.10 727.70 Z" fill="#0c0426" fill-rule="nonzero" node-id="315" stroke="none" target-height="6.200012" target-width="66.69998" target-x="202.1" target-y="721.5"></path></svg>